<svg width="128" height="128" viewBox="0 0 128 128" fill="none" xmlns="http://www.w3.org/2000/svg">
  <rect width="128" height="128" rx="28" fill="#052E16"/>
  <rect x="18" y="18" width="92" height="92" rx="22" fill="#0F172A" stroke="#166534" stroke-width="2"/>
  <path d="M88 41C79 35 66 34 56 39C47 44 40 54 40 65C40 77 50 88 64 88C76 88 86 80 89 69C90 64 89 58 86 53" stroke="#84CC16" stroke-width="7" stroke-linecap="round"/>
  <path d="M52 66C58 61 68 58 82 58" stroke="#F8FAFC" stroke-width="4" stroke-linecap="round"/>
  <circle cx="83" cy="58" r="5" fill="#F8FAFC"/>
  <path d="M61 50C66 47 73 46 79 47" stroke="#4ADE80" stroke-width="4" stroke-linecap="round"/>
  <text x="64" y="114" text-anchor="middle" fill="#DCFCE7" font-family="Segoe UI, Arial, sans-serif" font-size="12" font-weight="700">SPRING BOOT</text>
</svg>
