<svg width="1200" height="800" viewBox="0 0 1200 800" fill="none" xmlns="http://www.w3.org/2000/svg">
  <rect width="1200" height="800" rx="36" fill="#07131F"/>
  <rect width="1200" height="800" rx="36" fill="url(#paint0_linear)"/>
  <circle cx="1008" cy="124" r="170" fill="#FACC15" fill-opacity="0.20"/>
  <circle cx="263" cy="726" r="250" fill="#38BDF8" fill-opacity="0.16"/>
  <rect x="74" y="74" width="1052" height="652" rx="28" fill="#0B1120" fill-opacity="0.88" stroke="rgba(255,255,255,0.08)"/>
  <rect x="130" y="132" width="228" height="44" rx="22" fill="#172554"/>
  <text x="164" y="160" fill="#93C5FD" font-family="Segoe UI, Arial, sans-serif" font-size="24" font-weight="700">LIVE PROJECT</text>
  <text x="130" y="262" fill="white" font-family="Segoe UI, Arial, sans-serif" font-size="72" font-weight="800">Skycast</text>
  <text x="130" y="340" fill="white" font-family="Segoe UI, Arial, sans-serif" font-size="72" font-weight="800">Weather App</text>
  <text x="130" y="406" fill="#CBD5E1" font-family="Segoe UI, Arial, sans-serif" font-size="28" font-weight="500">Weather dashboard using OpenWeatherMap API and a clean UI.</text>
  <rect x="130" y="478" width="178" height="58" rx="18" fill="#0369A1"/>
  <text x="178" y="516" fill="white" font-family="Segoe UI, Arial, sans-serif" font-size="28" font-weight="700">API Powered</text>
  <rect x="330" y="478" width="146" height="58" rx="18" fill="#1D4ED8"/>
  <text x="372" y="516" fill="#DBEAFE" font-family="Segoe UI, Arial, sans-serif" font-size="28" font-weight="700">Responsive</text>
  <rect x="770" y="194" width="276" height="360" rx="34" fill="#0F172A" stroke="#334155" stroke-width="2"/>
  <circle cx="908" cy="270" r="52" fill="#FACC15"/>
  <ellipse cx="936" cy="314" rx="64" ry="32" fill="#E2E8F0"/>
  <ellipse cx="878" cy="322" rx="52" ry="26" fill="#CBD5E1"/>
  <rect x="826" y="408" width="156" height="24" rx="12" fill="#334155"/>
  <rect x="826" y="452" width="126" height="18" rx="9" fill="#38BDF8"/>
  <rect x="826" y="486" width="98" height="18" rx="9" fill="#60A5FA"/>
  <rect x="130" y="614" width="324" height="30" rx="15" fill="#172554"/>
  <rect x="130" y="660" width="244" height="22" rx="11" fill="#334155"/>
  <defs>
    <linearGradient id="paint0_linear" x1="48" y1="32" x2="1120" y2="734" gradientUnits="userSpaceOnUse">
      <stop stop-color="#0F172A"/>
      <stop offset="0.52" stop-color="#0B1F3A"/>
      <stop offset="1" stop-color="#082F49"/>
    </linearGradient>
  </defs>
</svg>
