<svg width="1200" height="800" viewBox="0 0 1200 800" fill="none" xmlns="http://www.w3.org/2000/svg">
  <rect width="1200" height="800" rx="36" fill="#08111A"/>
  <rect width="1200" height="800" rx="36" fill="url(#paint0_linear)"/>
  <circle cx="965" cy="156" r="206" fill="#EF4444" fill-opacity="0.18"/>
  <circle cx="220" cy="685" r="266" fill="#22C55E" fill-opacity="0.14"/>
  <rect x="74" y="74" width="1052" height="652" rx="28" fill="#0F172A" fill-opacity="0.88" stroke="rgba(255,255,255,0.08)"/>
  <rect x="130" y="132" width="240" height="44" rx="22" fill="#1E293B"/>
  <text x="164" y="160" fill="#93C5FD" font-family="Segoe UI, Arial, sans-serif" font-size="24" font-weight="700">LIVE PROJECT</text>
  <text x="130" y="262" fill="white" font-family="Segoe UI, Arial, sans-serif" font-size="72" font-weight="800">Blood Donor</text>
  <text x="130" y="340" fill="white" font-family="Segoe UI, Arial, sans-serif" font-size="72" font-weight="800">Finder</text>
  <text x="130" y="406" fill="#CBD5E1" font-family="Segoe UI, Arial, sans-serif" font-size="28" font-weight="500">React app for finding donors by blood group and location.</text>
  <rect x="130" y="478" width="188" height="58" rx="18" fill="#DC2626"/>
  <text x="170" y="516" fill="white" font-family="Segoe UI, Arial, sans-serif" font-size="28" font-weight="700">Emergency Ready</text>
  <rect x="340" y="478" width="146" height="58" rx="18" fill="#14532D"/>
  <text x="384" y="516" fill="#DCFCE7" font-family="Segoe UI, Arial, sans-serif" font-size="28" font-weight="700">Responsive</text>
  <rect x="782" y="206" width="250" height="334" rx="32" fill="#111827" stroke="#334155" stroke-width="2"/>
  <path d="M907 282C907 251.624 931.624 227 962 227C992.376 227 1017 251.624 1017 282C1017 353 962 394 962 394C962 394 907 353 907 282Z" fill="#EF4444"/>
  <path d="M947 290H977V305H947V290Z" fill="white"/>
  <path d="M955 282H970V313H955V282Z" fill="white"/>
  <rect x="824" y="434" width="165" height="24" rx="12" fill="#334155"/>
  <rect x="824" y="474" width="118" height="18" rx="9" fill="#1D4ED8"/>
  <rect x="824" y="510" width="142" height="18" rx="9" fill="#16A34A"/>
  <rect x="130" y="614" width="315" height="30" rx="15" fill="#1E293B"/>
  <rect x="130" y="660" width="220" height="22" rx="11" fill="#334155"/>
  <defs>
    <linearGradient id="paint0_linear" x1="36" y1="24" x2="1122" y2="748" gradientUnits="userSpaceOnUse">
      <stop stop-color="#0F172A"/>
      <stop offset="0.5" stop-color="#111827"/>
      <stop offset="1" stop-color="#052E2B"/>
    </linearGradient>
  </defs>
</svg>
