<svg width="128" height="128" viewBox="0 0 128 128" fill="none" xmlns="http://www.w3.org/2000/svg">
  <rect width="128" height="128" rx="28" fill="#0F172A"/>
  <rect x="18" y="18" width="92" height="92" rx="22" fill="#111827" stroke="#334155" stroke-width="2"/>
  <path d="M66 27C72 33 73 38 68 43C65 46 64 49 67 52" stroke="#F97316" stroke-width="5" stroke-linecap="round"/>
  <path d="M58 34C62 39 62 43 59 47" stroke="#FB923C" stroke-width="4" stroke-linecap="round"/>
  <path d="M45 78C45 72.4772 49.4772 68 55 68H75C80.5229 68 85 72.4772 85 78V82H45V78Z" fill="#E5E7EB"/>
  <path d="M40 84H90C88 92 80 98 70 98H58C48 98 41 92 40 84Z" fill="#93C5FD"/>
  <path d="M50 61C58 64 72 64 80 61" stroke="#60A5FA" stroke-width="4" stroke-linecap="round"/>
  <text x="64" y="114" text-anchor="middle" fill="#E2E8F0" font-family="Segoe UI, Arial, sans-serif" font-size="15" font-weight="700">JAVA</text>
</svg>
